<mxfile host="app.diagrams.net" agent="Mozilla/5.0 (Macintosh; Intel Mac OS X 10_15_7) AppleWebKit/537.36 (KHTML, like Gecko) Chrome/130.0.0.0 Safari/537.36" version="26.0.6">
  <diagram name="페이지-1" id="mrtNM5ilpTjFAXcuEeRy">
    <mxGraphModel dx="1366" dy="748" grid="1" gridSize="10" guides="1" tooltips="1" connect="1" arrows="1" fold="1" page="1" pageScale="1" pageWidth="827" pageHeight="1169" math="0" shadow="0">
      <root>
        <mxCell id="0" />
        <mxCell id="1" parent="0" />
        <mxCell id="0-jEBxhZZ7Be6jpB6h_B-1" value="" style="shape=cylinder3;whiteSpace=wrap;html=1;boundedLbl=1;backgroundOutline=1;size=15;" vertex="1" parent="1">
          <mxGeometry x="525" y="70" width="60" height="80" as="geometry" />
        </mxCell>
        <mxCell id="0-jEBxhZZ7Be6jpB6h_B-2" value="Deploy Server" style="ellipse;shape=cloud;whiteSpace=wrap;html=1;fontSize=20;" vertex="1" parent="1">
          <mxGeometry x="75" y="70" width="240" height="170" as="geometry" />
        </mxCell>
        <mxCell id="0-jEBxhZZ7Be6jpB6h_B-3" value="" style="shape=cylinder3;whiteSpace=wrap;html=1;boundedLbl=1;backgroundOutline=1;size=15;" vertex="1" parent="1">
          <mxGeometry x="525" y="430" width="60" height="80" as="geometry" />
        </mxCell>
        <mxCell id="0-jEBxhZZ7Be6jpB6h_B-4" value="" style="shape=cylinder3;whiteSpace=wrap;html=1;boundedLbl=1;backgroundOutline=1;size=15;" vertex="1" parent="1">
          <mxGeometry x="525" y="310" width="60" height="80" as="geometry" />
        </mxCell>
        <mxCell id="0-jEBxhZZ7Be6jpB6h_B-5" value="" style="shape=cylinder3;whiteSpace=wrap;html=1;boundedLbl=1;backgroundOutline=1;size=15;" vertex="1" parent="1">
          <mxGeometry x="525" y="190" width="60" height="80" as="geometry" />
        </mxCell>
        <mxCell id="0-jEBxhZZ7Be6jpB6h_B-6" value="&lt;h1 style=&quot;margin-top: 0px;&quot;&gt;Deploy&lt;/h1&gt;" style="text;html=1;whiteSpace=wrap;overflow=hidden;rounded=0;align=center;verticalAlign=middle;" vertex="1" parent="1">
          <mxGeometry x="605" y="50" width="180" height="120" as="geometry" />
        </mxCell>
        <mxCell id="0-jEBxhZZ7Be6jpB6h_B-7" value="&lt;h1 style=&quot;margin-top: 0px;&quot;&gt;Staging(Spare)&lt;/h1&gt;" style="text;html=1;whiteSpace=wrap;overflow=hidden;rounded=0;align=center;verticalAlign=middle;" vertex="1" parent="1">
          <mxGeometry x="605" y="170" width="180" height="120" as="geometry" />
        </mxCell>
        <mxCell id="0-jEBxhZZ7Be6jpB6h_B-8" value="&lt;h1 style=&quot;margin-top: 0px;&quot;&gt;Development&lt;/h1&gt;" style="text;html=1;whiteSpace=wrap;overflow=hidden;rounded=0;align=center;verticalAlign=middle;" vertex="1" parent="1">
          <mxGeometry x="605" y="290" width="180" height="120" as="geometry" />
        </mxCell>
        <mxCell id="0-jEBxhZZ7Be6jpB6h_B-9" value="&lt;h1 style=&quot;margin-top: 0px;&quot;&gt;Test&lt;/h1&gt;" style="text;html=1;whiteSpace=wrap;overflow=hidden;rounded=0;align=center;verticalAlign=middle;" vertex="1" parent="1">
          <mxGeometry x="605" y="410" width="180" height="120" as="geometry" />
        </mxCell>
        <mxCell id="0-jEBxhZZ7Be6jpB6h_B-10" value="" style="curved=1;endArrow=classic;html=1;rounded=0;entryX=1;entryY=0.5;entryDx=0;entryDy=0;entryPerimeter=0;exitX=1;exitY=0.5;exitDx=0;exitDy=0;exitPerimeter=0;" edge="1" parent="1" source="0-jEBxhZZ7Be6jpB6h_B-1" target="0-jEBxhZZ7Be6jpB6h_B-5">
          <mxGeometry width="50" height="50" relative="1" as="geometry">
            <mxPoint x="425" y="200" as="sourcePoint" />
            <mxPoint x="475" y="150" as="targetPoint" />
            <Array as="points">
              <mxPoint x="635" y="170" />
            </Array>
          </mxGeometry>
        </mxCell>
        <mxCell id="0-jEBxhZZ7Be6jpB6h_B-11" value="Polling(Schema &amp;amp;Data)&lt;div&gt;1 per week&lt;/div&gt;" style="text;html=1;align=center;verticalAlign=middle;whiteSpace=wrap;rounded=0;" vertex="1" parent="1">
          <mxGeometry x="615" y="150" width="150" height="30" as="geometry" />
        </mxCell>
        <mxCell id="0-jEBxhZZ7Be6jpB6h_B-12" value="" style="curved=1;endArrow=classic;html=1;rounded=0;entryX=1;entryY=0.5;entryDx=0;entryDy=0;entryPerimeter=0;exitX=1;exitY=0.5;exitDx=0;exitDy=0;exitPerimeter=0;" edge="1" parent="1" source="0-jEBxhZZ7Be6jpB6h_B-4" target="0-jEBxhZZ7Be6jpB6h_B-3">
          <mxGeometry width="50" height="50" relative="1" as="geometry">
            <mxPoint x="575" y="350" as="sourcePoint" />
            <mxPoint x="585" y="470" as="targetPoint" />
            <Array as="points">
              <mxPoint x="635" y="410" />
            </Array>
          </mxGeometry>
        </mxCell>
        <mxCell id="0-jEBxhZZ7Be6jpB6h_B-13" value="Polling(Schema only)&lt;div&gt;by trigger&lt;/div&gt;" style="text;html=1;align=center;verticalAlign=middle;whiteSpace=wrap;rounded=0;" vertex="1" parent="1">
          <mxGeometry x="615" y="400" width="150" height="30" as="geometry" />
        </mxCell>
        <mxCell id="0-jEBxhZZ7Be6jpB6h_B-14" value="Polling(Schema &amp;amp; Data)&lt;div&gt;by trigger&lt;/div&gt;" style="text;html=1;align=center;verticalAlign=middle;whiteSpace=wrap;rounded=0;" vertex="1" parent="1">
          <mxGeometry x="615" y="270" width="150" height="30" as="geometry" />
        </mxCell>
        <mxCell id="0-jEBxhZZ7Be6jpB6h_B-15" value="" style="curved=1;endArrow=classic;html=1;rounded=0;entryX=1;entryY=0.5;entryDx=0;entryDy=0;entryPerimeter=0;exitX=1;exitY=0.5;exitDx=0;exitDy=0;exitPerimeter=0;" edge="1" parent="1" source="0-jEBxhZZ7Be6jpB6h_B-5" target="0-jEBxhZZ7Be6jpB6h_B-4">
          <mxGeometry width="50" height="50" relative="1" as="geometry">
            <mxPoint x="605" y="250" as="sourcePoint" />
            <mxPoint x="605" y="370" as="targetPoint" />
            <Array as="points">
              <mxPoint x="655" y="310" />
            </Array>
          </mxGeometry>
        </mxCell>
        <mxCell id="0-jEBxhZZ7Be6jpB6h_B-18" value="" style="shape=singleArrow;direction=south;whiteSpace=wrap;html=1;rotation=-180;arrowWidth=0.42857142857142855;arrowSize=0.62;" vertex="1" parent="1">
          <mxGeometry x="160" y="250" width="70" height="50" as="geometry" />
        </mxCell>
        <mxCell id="0-jEBxhZZ7Be6jpB6h_B-19" value="API&lt;div&gt;(Datasource Data)&lt;/div&gt;" style="text;html=1;align=center;verticalAlign=middle;whiteSpace=wrap;rounded=0;fontSize=15;" vertex="1" parent="1">
          <mxGeometry x="230" y="260" width="135" height="30" as="geometry" />
        </mxCell>
        <mxCell id="0-jEBxhZZ7Be6jpB6h_B-22" value="" style="curved=1;endArrow=classic;html=1;rounded=0;entryX=0;entryY=0.5;entryDx=0;entryDy=0;entryPerimeter=0;" edge="1" parent="1" source="0-jEBxhZZ7Be6jpB6h_B-2" target="0-jEBxhZZ7Be6jpB6h_B-1">
          <mxGeometry width="50" height="50" relative="1" as="geometry">
            <mxPoint x="315" y="152" as="sourcePoint" />
            <mxPoint x="525" y="110" as="targetPoint" />
            <Array as="points">
              <mxPoint x="415" y="150" />
            </Array>
          </mxGeometry>
        </mxCell>
        <mxCell id="0-jEBxhZZ7Be6jpB6h_B-21" value="" style="verticalLabelPosition=bottom;verticalAlign=top;html=1;shape=mxgraph.basic.x;labelBackgroundColor=#FF0000;labelBorderColor=#FF3333;textShadow=1;fillColor=#f8cecc;strokeColor=#b85450;" vertex="1" parent="1">
          <mxGeometry x="416" y="116" width="45" height="40" as="geometry" />
        </mxCell>
        <mxCell id="0-jEBxhZZ7Be6jpB6h_B-25" value="DB Monitoring Program" style="swimlane;fontStyle=0;childLayout=stackLayout;horizontal=1;startSize=30;horizontalStack=0;resizeParent=1;resizeParentMax=0;resizeLast=0;collapsible=1;marginBottom=0;whiteSpace=wrap;html=1;" vertex="1" parent="1">
          <mxGeometry x="50" y="340" width="290" height="150" as="geometry" />
        </mxCell>
        <mxCell id="0-jEBxhZZ7Be6jpB6h_B-26" value="1. Monitor Database CPU load." style="text;strokeColor=none;fillColor=none;align=left;verticalAlign=middle;spacingLeft=4;spacingRight=4;overflow=hidden;points=[[0,0.5],[1,0.5]];portConstraint=eastwest;rotatable=0;whiteSpace=wrap;html=1;" vertex="1" parent="0-jEBxhZZ7Be6jpB6h_B-25">
          <mxGeometry y="30" width="290" height="30" as="geometry" />
        </mxCell>
        <mxCell id="0-jEBxhZZ7Be6jpB6h_B-27" value="2. Request API to Server for changing Datasource" style="text;strokeColor=none;fillColor=none;align=left;verticalAlign=middle;spacingLeft=4;spacingRight=4;overflow=hidden;points=[[0,0.5],[1,0.5]];portConstraint=eastwest;rotatable=0;whiteSpace=wrap;html=1;" vertex="1" parent="0-jEBxhZZ7Be6jpB6h_B-25">
          <mxGeometry y="60" width="290" height="30" as="geometry" />
        </mxCell>
        <mxCell id="0-jEBxhZZ7Be6jpB6h_B-28" value="3. Polling From A DB to B DB.(Schema only / Both)" style="text;strokeColor=none;fillColor=none;align=left;verticalAlign=middle;spacingLeft=4;spacingRight=4;overflow=hidden;points=[[0,0.5],[1,0.5]];portConstraint=eastwest;rotatable=0;whiteSpace=wrap;html=1;" vertex="1" parent="0-jEBxhZZ7Be6jpB6h_B-25">
          <mxGeometry y="90" width="290" height="30" as="geometry" />
        </mxCell>
        <mxCell id="0-jEBxhZZ7Be6jpB6h_B-29" value="4. Scheduled Method." style="text;strokeColor=none;fillColor=none;align=left;verticalAlign=middle;spacingLeft=4;spacingRight=4;overflow=hidden;points=[[0,0.5],[1,0.5]];portConstraint=eastwest;rotatable=0;whiteSpace=wrap;html=1;" vertex="1" parent="0-jEBxhZZ7Be6jpB6h_B-25">
          <mxGeometry y="120" width="290" height="30" as="geometry" />
        </mxCell>
        <mxCell id="0-jEBxhZZ7Be6jpB6h_B-30" value="" style="curved=1;endArrow=classic;html=1;rounded=0;entryX=0;entryY=0.5;entryDx=0;entryDy=0;entryPerimeter=0;" edge="1" parent="1">
          <mxGeometry width="50" height="50" relative="1" as="geometry">
            <mxPoint x="310.3362099267815" y="179.99667474700757" as="sourcePoint" />
            <mxPoint x="525" y="231.52999999999997" as="targetPoint" />
            <Array as="points">
              <mxPoint x="415" y="201.53" />
            </Array>
          </mxGeometry>
        </mxCell>
        <mxCell id="0-jEBxhZZ7Be6jpB6h_B-31" value="Should recover" style="text;html=1;align=center;verticalAlign=middle;whiteSpace=wrap;rounded=0;fontSize=15;" vertex="1" parent="1">
          <mxGeometry x="371" y="80" width="135" height="30" as="geometry" />
        </mxCell>
      </root>
    </mxGraphModel>
  </diagram>
</mxfile>
